<?xml version="1.0" encoding="UTF-8"?>
<svg version="1.1" xmlns="http://www.w3.org/2000/svg" width="123" height="123">
<path d="M0 0 C40.59 0 81.18 0 123 0 C123 40.59 123 81.18 123 123 C82.41 123 41.82 123 0 123 C0 82.41 0 41.82 0 0 Z " fill="#EBEBEB" transform="translate(0,0)"/>
<path d="M0 0 C-1.52206009 2.62901288 -2.84365964 4.84365964 -5 7 C-6.34579891 6.72122737 -7.67646429 6.37032704 -9 6 C-11.58781148 5.77700773 -14.15853933 5.58709338 -16.75 5.4375 C-19.1425 5.293125 -21.535 5.14875 -24 5 C-24 10.28 -24 15.56 -24 21 C-22.68 21.33 -21.36 21.66 -20 22 C-19.67 20.68 -19.34 19.36 -19 18 C-16 19 -16 19 -14.61328125 21.21484375 C-14.18402344 22.11332031 -13.75476562 23.01179688 -13.3125 23.9375 C-12.87550781 24.83339844 -12.43851563 25.72929688 -11.98828125 26.65234375 C-11 29 -11 29 -11 31 C-11.639375 30.731875 -12.27875 30.46375 -12.9375 30.1875 C-16.91202261 28.64635858 -20.94884495 27.32390688 -25 26 C-25.66 27.32 -26.32 28.64 -27 30 C-25.04761147 32.00612399 -23.08862178 34.00492433 -21.125 36 C-20.29162109 36.85851562 -20.29162109 36.85851562 -19.44140625 37.734375 C-17.99865596 39.19450782 -16.5025626 40.60149298 -15 42 C-14.34 42 -13.68 42 -13 42 C-12.34 41.34 -11.68 40.68 -11 40 C-11.70554068 43.66881155 -13.27735506 46.70450534 -15 50 C-13.68 50.33 -12.36 50.66 -11 51 C-11 52.98 -11 54.96 -11 57 C-9.02 57 -7.04 57 -5 57 C-5 55.02 -5 53.04 -5 51 C-2.69 51 -0.38 51 2 51 C2 52.98 2 54.96 2 57 C2.969375 56.979375 3.93875 56.95875 4.9375 56.9375 C8 57 8 57 9 58 C9 59.98 9 61.96 9 64 C12.96 64 16.92 64 21 64 C21 62.02 21 60.04 21 58 C19.02 58 17.04 58 15 58 C15 55.69 15 53.38 15 51 C18.96 51 22.92 51 27 51 C27 47.04 27 43.08 27 39 C25.02 39 23.04 39 21 39 C21 34.38 21 29.76 21 25 C22.98 25 24.96 25 27 25 C27 23.02 27 21.04 27 19 C29.31 19 31.62 19 34 19 C34 17.02 34 15.04 34 13 C36.31 13 38.62 13 41 13 C41 11.02 41 9.04 41 7 C45.29 6.67 49.58 6.34 54 6 C54 31.74 54 57.48 54 84 C13.41 84 -27.18 84 -69 84 C-69 66.84 -69 49.68 -69 32 C-66.69 32 -64.38 32 -62 32 C-62 30.02 -62 28.04 -62 26 C-60.02 26 -58.04 26 -56 26 C-56 21.38 -56 16.76 -56 12 C-54.02 12 -52.04 12 -50 12 C-50 10.02 -50 8.04 -50 6 C-47.69 6 -45.38 6 -43 6 C-43 7.98 -43 9.96 -43 12 C-42.030625 11.979375 -41.06125 11.95875 -40.0625 11.9375 C-37 12 -37 12 -36 13 C-35.95919217 14.99958364 -35.95745644 17.00045254 -36 19 C-38.64 19 -41.28 19 -44 19 C-44 20.98 -44 22.96 -44 25 C-45.98 25 -47.96 25 -50 25 C-50 29.62 -50 34.24 -50 39 C-47.69 39 -45.38 39 -43 39 C-43 34.71 -43 30.42 -43 26 C-40.69 26 -38.38 26 -36 26 C-36 28.31 -36 30.62 -36 33 C-34.35 33.33 -32.7 33.66 -31 34 C-31.185625 33.195625 -31.37125 32.39125 -31.5625 31.5625 C-31.706875 30.716875 -31.85125 29.87125 -32 29 C-31.505 28.505 -31.505 28.505 -31 28 C-30.8415735 25.9291528 -30.74875578 23.85321971 -30.68359375 21.77734375 C-30.62075195 19.88725586 -30.62075195 19.88725586 -30.55664062 17.95898438 C-30.51682404 16.61849264 -30.47711186 15.2779978 -30.4375 13.9375 C-30.39431958 12.59308477 -30.35070544 11.2486834 -30.30664062 9.90429688 C-30.20014642 6.6029766 -30.0981354 3.30157764 -30 0 C-26.04924621 -0.16755938 -22.09827679 -0.3281242 -18.14697266 -0.48217773 C-16.14079929 -0.56187238 -14.13484924 -0.64712518 -12.12890625 -0.73242188 C-10.87207031 -0.78076172 -9.61523438 -0.82910156 -8.3203125 -0.87890625 C-6.57645264 -0.94960327 -6.57645264 -0.94960327 -4.79736328 -1.02172852 C-2 -1 -2 -1 0 0 Z " fill="#E8E8E8" transform="translate(69,39)"/>
<path d="M0 0 C-1.52206009 2.62901288 -2.84365964 4.84365964 -5 7 C-6.34579891 6.72122737 -7.67646429 6.37032704 -9 6 C-11.58781148 5.77700773 -14.15853933 5.58709338 -16.75 5.4375 C-19.1425 5.293125 -21.535 5.14875 -24 5 C-24 10.28 -24 15.56 -24 21 C-22.68 21.33 -21.36 21.66 -20 22 C-19.67 20.68 -19.34 19.36 -19 18 C-16 19 -16 19 -14.61328125 21.21484375 C-14.18402344 22.11332031 -13.75476562 23.01179688 -13.3125 23.9375 C-12.87550781 24.83339844 -12.43851563 25.72929688 -11.98828125 26.65234375 C-11 29 -11 29 -11 31 C-11.639375 30.731875 -12.27875 30.46375 -12.9375 30.1875 C-16.91202261 28.64635858 -20.94884495 27.32390688 -25 26 C-25.66 27.32 -26.32 28.64 -27 30 C-25.04761147 32.00612399 -23.08862178 34.00492433 -21.125 36 C-20.29162109 36.85851562 -20.29162109 36.85851562 -19.44140625 37.734375 C-17.99865596 39.19450782 -16.5025626 40.60149298 -15 42 C-14.34 42 -13.68 42 -13 42 C-12.34 41.34 -11.68 40.68 -11 40 C-11.70554068 43.66881155 -13.27735506 46.70450534 -15 50 C-13.68 50.33 -12.36 50.66 -11 51 C-11 52.98 -11 54.96 -11 57 C-9.02 57 -7.04 57 -5 57 C-5 55.02 -5 53.04 -5 51 C-2.69 51 -0.38 51 2 51 C2 52.98 2 54.96 2 57 C3.98 57 5.96 57 8 57 C8 57.33 8 57.66 8 58 C4.04 58 0.08 58 -4 58 C-4 62.29 -4 66.58 -4 71 C-8.29 71 -12.58 71 -17 71 C-17 74.96 -17 78.92 -17 83 C-17.33 83 -17.66 83 -18 83 C-18 79.04 -18 75.08 -18 71 C-19.65 71 -21.3 71 -23 71 C-23 72.98 -23 74.96 -23 77 C-23.33 77 -23.66 77 -24 77 C-24 74.69 -24 72.38 -24 70 C-22.02 70 -20.04 70 -18 70 C-18 68.35 -18 66.7 -18 65 C-19.98 65 -21.96 65 -24 65 C-24 63.35 -24 61.7 -24 60 C-27.65444862 61.0427966 -27.65444862 61.0427966 -30 63.8125 C-30.33 64.534375 -30.66 65.25625 -31 66 C-32.2684375 67.175625 -32.2684375 67.175625 -33.5625 68.375 C-36.32281376 71.34764558 -36.72254985 73.02321445 -37 77 C-40.96 77 -44.92 77 -49 77 C-49 75.02 -49 73.04 -49 71 C-51.31 71 -53.62 71 -56 71 C-56 68 -56 65 -56 62 C-59.48079166 57.88597055 -59.48079166 57.88597055 -69 58 C-69 49.42 -69 40.84 -69 32 C-66.69 32 -64.38 32 -62 32 C-62 30.02 -62 28.04 -62 26 C-60.02 26 -58.04 26 -56 26 C-56 21.38 -56 16.76 -56 12 C-54.02 12 -52.04 12 -50 12 C-50 10.02 -50 8.04 -50 6 C-47.69 6 -45.38 6 -43 6 C-43 7.98 -43 9.96 -43 12 C-42.030625 11.979375 -41.06125 11.95875 -40.0625 11.9375 C-37 12 -37 12 -36 13 C-35.95919217 14.99958364 -35.95745644 17.00045254 -36 19 C-38.64 19 -41.28 19 -44 19 C-44 20.98 -44 22.96 -44 25 C-45.98 25 -47.96 25 -50 25 C-50 29.62 -50 34.24 -50 39 C-47.69 39 -45.38 39 -43 39 C-43 34.71 -43 30.42 -43 26 C-40.69 26 -38.38 26 -36 26 C-36 28.31 -36 30.62 -36 33 C-34.35 33.33 -32.7 33.66 -31 34 C-31.185625 33.195625 -31.37125 32.39125 -31.5625 31.5625 C-31.706875 30.716875 -31.85125 29.87125 -32 29 C-31.505 28.505 -31.505 28.505 -31 28 C-30.8415735 25.9291528 -30.74875578 23.85321971 -30.68359375 21.77734375 C-30.62075195 19.88725586 -30.62075195 19.88725586 -30.55664062 17.95898438 C-30.51682404 16.61849264 -30.47711186 15.2779978 -30.4375 13.9375 C-30.39431958 12.59308477 -30.35070544 11.2486834 -30.30664062 9.90429688 C-30.20014642 6.6029766 -30.0981354 3.30157764 -30 0 C-26.04924621 -0.16755938 -22.09827679 -0.3281242 -18.14697266 -0.48217773 C-16.14079929 -0.56187238 -14.13484924 -0.64712518 -12.12890625 -0.73242188 C-10.87207031 -0.78076172 -9.61523438 -0.82910156 -8.3203125 -0.87890625 C-6.57645264 -0.94960327 -6.57645264 -0.94960327 -4.79736328 -1.02172852 C-2 -1 -2 -1 0 0 Z " fill="#E7E7E7" transform="translate(69,39)"/>
<path d="M0 0 C21.45 0 42.9 0 65 0 C65 4.29 65 8.58 65 13 C60.71 13 56.42 13 52 13 C52 15.31 52 17.62 52 20 C50.02 20 48.04 20 46 20 C46 23.96 46 27.92 46 32 C43.36 32 40.72 32 38 32 C38 28.04 38 24.08 38 20 C36.35 20 34.7 20 33 20 C33 21.98 33 23.96 33 26 C30.69 26 28.38 26 26 26 C26 28.31 26 30.62 26 33 C24.02 33 22.04 33 20 33 C20 34.98 20 36.96 20 39 C17.69 39 15.38 39 13 39 C13 41.31 13 43.62 13 46 C10.69 46 8.38 46 6 46 C6 41.71 6 37.42 6 33 C4.35 33 2.7 33 1 33 C1 38.94 1 44.88 1 51 C2.65 51 4.3 51 6 51 C6 55.29 6 59.58 6 64 C4.02 64 2.04 64 0 64 C0 42.88 0 21.76 0 0 Z " fill="#F8F8F8" transform="translate(0,0)"/>
<path d="M0 0 C1.98 0 3.96 0 6 0 C6 4.29 6 8.58 6 13 C7.98 13 9.96 13 12 13 C12 16.96 12 20.92 12 25 C10.02 25 8.04 25 6 25 C6 23.02 6 21.04 6 19 C3.69 19 1.38 19 -1 19 C-1 21.31 -1 23.62 -1 26 C1.31 26 3.62 26 6 26 C6.125 33.625 6.125 33.625 5 37 C4.01 37 3.02 37 2 37 C2 37.66 2 38.32 2 39 C-7.24 39 -16.48 39 -26 39 C-25.96046921 48.07974188 -25.96046921 48.07974188 -25.90991211 57.15942383 C-25.90741455 58.28888428 -25.90491699 59.41834473 -25.90234375 60.58203125 C-25.89710693 61.73936768 -25.89187012 62.8967041 -25.88647461 64.08911133 C-26 67 -26 67 -27 70 C-27 70.99 -27 71.98 -27 73 C-28.65 72.67 -30.3 72.34 -32 72 C-32 69.69 -32 67.38 -32 65 C-34.31 65 -36.62 65 -39 65 C-39 69.29 -39 73.58 -39 78 C-41.31 78 -43.62 78 -46 78 C-46 73.38 -46 68.76 -46 64 C-44.02 64 -42.04 64 -40 64 C-40 62.02 -40 60.04 -40 58 C-37.36 58 -34.72 58 -32 58 C-32.495 55.03 -32.495 55.03 -33 52 C-34.98 51.67 -36.96 51.34 -39 51 C-39 49.02 -39 47.04 -39 45 C-41.31 45 -43.62 45 -46 45 C-46 46.98 -46 48.96 -46 51 C-47.98 51 -49.96 51 -52 51 C-52 55.62 -52 60.24 -52 65 C-53.98 65 -55.96 65 -58 65 C-58 66.98 -58 68.96 -58 71 C-60.31 71 -62.62 71 -65 71 C-65 68.69 -65 66.38 -65 64 C-63.02 64 -61.04 64 -59 64 C-59 59.71 -59 55.42 -59 51 C-60.65 51 -62.3 51 -64 51 C-64 45.06 -64 39.12 -64 33 C-62.35 33 -60.7 33 -59 33 C-59 37.29 -59 41.58 -59 46 C-56.69 46 -54.38 46 -52 46 C-52 43.69 -52 41.38 -52 39 C-49.69 39 -47.38 39 -45 39 C-45 37.02 -45 35.04 -45 33 C-43.02 33 -41.04 33 -39 33 C-39 30.69 -39 28.38 -39 26 C-36.69 26 -34.38 26 -32 26 C-32 24.02 -32 22.04 -32 20 C-30.35 20 -28.7 20 -27 20 C-27 23.96 -27 27.92 -27 32 C-24.36 32 -21.72 32 -19 32 C-19 28.04 -19 24.08 -19 20 C-17.02 20 -15.04 20 -13 20 C-13 17.69 -13 15.38 -13 13 C-8.71 13 -4.42 13 0 13 C0 8.71 0 4.42 0 0 Z " fill="#080808" transform="translate(65,0)"/>
<path d="M0 0 C17.16 0 34.32 0 52 0 C52 10.56 52 21.12 52 32 C51.67 32 51.34 32 51 32 C51 30.02 51 28.04 51 26 C49.02 26 47.04 26 45 26 C45 23.69 45 21.38 45 19 C43.02 19 41.04 19 39 19 C39 17.02 39 15.04 39 13 C36.69 13 34.38 13 32 13 C32.825 13.763125 33.65 14.52625 34.5 15.3125 C37 18 37 18 37 21 C37.61875 21.0825 38.2375 21.165 38.875 21.25 C41 22 41 22 42.25 24.0625 C42.4975 24.701875 42.745 25.34125 43 26 C42.01 26.495 42.01 26.495 41 27 C40.505 26.01 40.505 26.01 40 25 C35.62140745 25.50522222 33.18348776 28.17827222 30 31 C29.01 29.68 28.02 28.36 27 27 C27.804375 26.236875 28.60875 25.47375 29.4375 24.6875 C32.16799024 22.20569102 32.16799024 22.20569102 33 19 C29.84866512 20.83827868 26.88035092 22.75972706 24 25 C23.34 24.34 22.68 23.68 22 23 C22.24441046 20.47442523 22.82360659 19.2147398 24.4375 17.25 C26 16 26 16 28 16 C27.505 14.515 27.505 14.515 27 13 C22.70761377 14.65091778 20.1206085 17.73754566 17 21 C18.56612193 24.84411747 21.02094121 27.15950209 24 30 C25.7041054 31.62836738 27.38025441 33.28769752 29 35 C29 35.66 29 36.32 29 37 C28.0925 37.2475 27.185 37.495 26.25 37.75 C22.89648511 39.03981342 21.32291764 40.31971042 19 43 C15.54798361 41.52278578 13.35038064 39.56205999 10.75 36.875 C10.04359375 36.15054688 9.3371875 35.42609375 8.609375 34.6796875 C8.07828125 34.12539063 7.5471875 33.57109375 7 33 C5.5459375 33.495 5.5459375 33.495 4.0625 34 C1 35 1 35 0 35 C0 32.03 0 29.06 0 26 C-2.31 26 -4.62 26 -7 26 C-7 23.69 -7 21.38 -7 19 C-4.69 19 -2.38 19 0 19 C0 20.98 0 22.96 0 25 C1.98 25 3.96 25 6 25 C6 21.04 6 17.08 6 13 C4.02 13 2.04 13 0 13 C0 8.71 0 4.42 0 0 Z " fill="#F0F0F0" transform="translate(71,0)"/>
<path d="M0 0 C-1.52206009 2.62901288 -2.84365964 4.84365964 -5 7 C-6.34579891 6.72122737 -7.67646429 6.37032704 -9 6 C-11.58781148 5.77700773 -14.15853933 5.58709338 -16.75 5.4375 C-19.1425 5.293125 -21.535 5.14875 -24 5 C-24 10.28 -24 15.56 -24 21 C-22.68 21.33 -21.36 21.66 -20 22 C-19.67 20.68 -19.34 19.36 -19 18 C-16 19 -16 19 -14.61328125 21.21484375 C-14.18402344 22.11332031 -13.75476562 23.01179688 -13.3125 23.9375 C-12.87550781 24.83339844 -12.43851563 25.72929688 -11.98828125 26.65234375 C-11 29 -11 29 -11 31 C-11.639375 30.731875 -12.27875 30.46375 -12.9375 30.1875 C-16.91202261 28.64635858 -20.94884495 27.32390688 -25 26 C-25.66 27.32 -26.32 28.64 -27 30 C-25.04761147 32.00612399 -23.08862178 34.00492433 -21.125 36 C-20.29162109 36.85851562 -20.29162109 36.85851562 -19.44140625 37.734375 C-17.99865596 39.19450782 -16.5025626 40.60149298 -15 42 C-14.34 42 -13.68 42 -13 42 C-12.34 41.34 -11.68 40.68 -11 40 C-11.70554068 43.66881155 -13.27735506 46.70450534 -15 50 C-13.68 50.33 -12.36 50.66 -11 51 C-11 52.98 -11 54.96 -11 57 C-9.02 57 -7.04 57 -5 57 C-5 55.02 -5 53.04 -5 51 C-2.69 51 -0.38 51 2 51 C2 52.98 2 54.96 2 57 C3.98 57 5.96 57 8 57 C8 57.33 8 57.66 8 58 C4.04 58 0.08 58 -4 58 C-4 62.29 -4 66.58 -4 71 C-8.29 71 -12.58 71 -17 71 C-17 74.96 -17 78.92 -17 83 C-17.33 83 -17.66 83 -18 83 C-18 79.04 -18 75.08 -18 71 C-19.65 71 -21.3 71 -23 71 C-23 72.98 -23 74.96 -23 77 C-23.33 77 -23.66 77 -24 77 C-24 74.69 -24 72.38 -24 70 C-22.02 70 -20.04 70 -18 70 C-18 68.35 -18 66.7 -18 65 C-19.98 65 -21.96 65 -24 65 C-24 63.35 -24 61.7 -24 60 C-27.65444862 61.0427966 -27.65444862 61.0427966 -30 63.8125 C-30.33 64.534375 -30.66 65.25625 -31 66 C-32.2684375 67.175625 -32.2684375 67.175625 -33.5625 68.375 C-36.32281376 71.34764558 -36.72254985 73.02321445 -37 77 C-40.96 77 -44.92 77 -49 77 C-49 75.02 -49 73.04 -49 71 C-51.31 71 -53.62 71 -56 71 C-56 68 -56 65 -56 62 C-57.69302154 59.7220142 -58.67328075 59.06740192 -61.48046875 58.48828125 C-62.82044922 58.40126953 -62.82044922 58.40126953 -64.1875 58.3125 C-65.08855469 58.24675781 -65.98960938 58.18101563 -66.91796875 58.11328125 C-67.60503906 58.07589844 -68.29210937 58.03851563 -69 58 C-69 57.67 -69 57.34 -69 57 C-66.73078464 56.86510609 -64.4592933 56.76806005 -62.1875 56.6875 C-60.29064453 56.60048828 -60.29064453 56.60048828 -58.35546875 56.51171875 C-57.24816406 56.67285156 -56.14085937 56.83398438 -55 57 C-53.234375 59.48828125 -53.234375 59.48828125 -52 62 C-48.51731584 62.5927973 -46.78657102 62.5552266 -43.875 60.5 C-43.25625 60.005 -42.6375 59.51 -42 59 C-40.68 59 -39.36 59 -38 59 C-37.875 61.375 -37.875 61.375 -38 64 C-40.6855594 66.6855594 -43.37621328 67.06049974 -47 68 C-47 68.33 -47 68.66 -47 69 C-43.18590099 69.55622277 -41.110341 69.72361541 -37.82421875 67.58203125 C-34.34954766 64.60283428 -32.01183669 62.11152651 -30 58 C-29.34 57.67 -28.68 57.34 -28 57 C-28.268125 56.113125 -28.53625 55.22625 -28.8125 54.3125 C-29 51 -29 51 -26.6875 48.125 C-24 46 -24 46 -22 46 C-22 46.66 -22 47.32 -22 48 C-20.35 47.34 -18.7 46.68 -17 46 C-19.2058424 44.86988348 -21.41445027 43.74584212 -23.625 42.625 C-24.55119141 42.14933594 -24.55119141 42.14933594 -25.49609375 41.6640625 C-29.25649167 39.76407197 -32.95517816 38.23211496 -37 37 C-37 33.37 -37 29.74 -37 26 C-36.67 26 -36.34 26 -36 26 C-36 28.31 -36 30.62 -36 33 C-34.35 33.33 -32.7 33.66 -31 34 C-31.185625 33.195625 -31.37125 32.39125 -31.5625 31.5625 C-31.706875 30.716875 -31.85125 29.87125 -32 29 C-31.505 28.505 -31.505 28.505 -31 28 C-30.8415735 25.9291528 -30.74875578 23.85321971 -30.68359375 21.77734375 C-30.62075195 19.88725586 -30.62075195 19.88725586 -30.55664062 17.95898438 C-30.51682404 16.61849264 -30.47711186 15.2779978 -30.4375 13.9375 C-30.39431958 12.59308477 -30.35070544 11.2486834 -30.30664062 9.90429688 C-30.20014642 6.6029766 -30.0981354 3.30157764 -30 0 C-26.04924621 -0.16755938 -22.09827679 -0.3281242 -18.14697266 -0.48217773 C-16.14079929 -0.56187238 -14.13484924 -0.64712518 -12.12890625 -0.73242188 C-10.87207031 -0.78076172 -9.61523438 -0.82910156 -8.3203125 -0.87890625 C-6.57645264 -0.94960327 -6.57645264 -0.94960327 -4.79736328 -1.02172852 C-2 -1 -2 -1 0 0 Z " fill="#E4E4E4" transform="translate(69,39)"/>
<path d="M0 0 C1.46856445 0.09861328 1.46856445 0.09861328 2.96679688 0.19921875 C5.37573332 0.36373148 7.7814756 0.54788251 10.1875 0.75 C10.23004356 2.74954746 10.22830783 4.75041636 10.1875 6.75 C9.1875 7.75 9.1875 7.75 6.46484375 7.84765625 C4.81162109 7.83025391 4.81162109 7.83025391 3.125 7.8125 C1.46791016 7.79896484 1.46791016 7.79896484 -0.22265625 7.78515625 C-1.07730469 7.77355469 -1.93195313 7.76195312 -2.8125 7.75 C-2.8125 9.73 -2.8125 11.71 -2.8125 13.75 C-5.1225 13.75 -7.4325 13.75 -9.8125 13.75 C-9.8125 15.73 -9.8125 17.71 -9.8125 19.75 C-12.1225 19.75 -14.4325 19.75 -16.8125 19.75 C-16.8125 21.73 -16.8125 23.71 -16.8125 25.75 C-18.7925 25.75 -20.7725 25.75 -22.8125 25.75 C-22.8125 30.37 -22.8125 34.99 -22.8125 39.75 C-20.8325 39.75 -18.8525 39.75 -16.8125 39.75 C-16.8125 43.71 -16.8125 47.67 -16.8125 51.75 C-20.7725 51.75 -24.7325 51.75 -28.8125 51.75 C-28.8125 54.06 -28.8125 56.37 -28.8125 58.75 C-26.8325 58.75 -24.8525 58.75 -22.8125 58.75 C-22.8125 60.73 -22.8125 62.71 -22.8125 64.75 C-26.7725 64.75 -30.7325 64.75 -34.8125 64.75 C-35.1425 62.77 -35.4725 60.79 -35.8125 58.75 C-37.7925 58.42 -39.7725 58.09 -41.8125 57.75 C-41.8125 55.77 -41.8125 53.79 -41.8125 51.75 C-44.1225 51.75 -46.4325 51.75 -48.8125 51.75 C-48.8125 53.73 -48.8125 55.71 -48.8125 57.75 C-50.7925 57.75 -52.7725 57.75 -54.8125 57.75 C-54.8125 55.77 -54.8125 53.79 -54.8125 51.75 C-56.4625 51.75 -58.1125 51.75 -59.8125 51.75 C-56.9375 46.875 -56.9375 46.875 -55.8125 45.75 C-53.81285018 45.66241997 -51.8101389 45.64303424 -49.80859375 45.65234375 C-48.71474365 45.65484131 -47.62089355 45.65733887 -46.49389648 45.65991211 C-45.09341064 45.66901611 -43.6929248 45.67812012 -42.25 45.6875 C-35.5984375 45.7184375 -35.5984375 45.7184375 -28.8125 45.75 C-29.1425 34.2 -29.4725 22.65 -29.8125 10.75 C-28.8225 11.41 -27.8325 12.07 -26.8125 12.75 C-22.58577391 12.60910913 -20.60531456 9.61630968 -17.8125 6.75 C-17.1525 6.75 -16.4925 6.75 -15.8125 6.75 C-15.8125 5.76 -15.8125 4.77 -15.8125 3.75 C-11.39056977 -1.59040397 -6.29464217 -0.53265609 0 0 Z " fill="#080808" transform="translate(112.8125,38.25)"/>
<path d="M0 0 C1.98 0 3.96 0 6 0 C6 6.27 6 12.54 6 19 C2.04 19 -1.92 19 -6 19 C-6 21.31 -6 23.62 -6 26 C-4.02 26 -2.04 26 0 26 C0 27.98 0 29.96 0 32 C-1.98 32 -3.96 32 -6 32 C-6 33.98 -6 35.96 -6 38 C-4.02 38 -2.04 38 0 38 C0 40.31 0 42.62 0 45 C-4.29 45 -8.58 45 -13 45 C-13 47.31 -13 49.62 -13 52 C-11.02 52 -9.04 52 -7 52 C-7 53.65 -7 55.3 -7 57 C-8.98 57 -10.96 57 -13 57 C-13 59.31 -13 61.62 -13 64 C-14.98 64 -16.96 64 -19 64 C-19 61.69 -19 59.38 -19 57 C-20.98 57 -22.96 57 -25 57 C-25 55.35 -25 53.7 -25 52 C-23.02 52 -21.04 52 -19 52 C-19 47.38 -19 42.76 -19 38 C-16.69 38 -14.38 38 -12 38 C-12 33.71 -12 29.42 -12 25 C-14.31 25 -16.62 25 -19 25 C-19 21.04 -19 17.08 -19 13 C-17.02 13 -15.04 13 -13 13 C-13 14.98 -13 16.96 -13 19 C-11.02 19 -9.04 19 -7 19 C-7 16.69 -7 14.38 -7 12 C-8.98 12 -10.96 12 -13 12 C-13 10.02 -13 8.04 -13 6 C-10.69 6 -8.38 6 -6 6 C-6 7.98 -6 9.96 -6 12 C-4.02 12 -2.04 12 0 12 C0 8.04 0 4.08 0 0 Z " fill="#090909" transform="translate(116,52)"/>
<path d="M0 0 C10 0 10 0 13.125 3 C13.74375 3.99 14.3625 4.98 15 6 C14.34 6 13.68 6 13 6 C13 8.31 13 10.62 13 13 C15.31 13 17.62 13 20 13 C20 14.98 20 16.96 20 19 C23.96 19 27.92 19 32 19 C32 17.02 32 15.04 32 13 C33.390625 11.0234375 33.390625 11.0234375 35.25 9.375 C36.20712891 8.50294922 36.20712891 8.50294922 37.18359375 7.61328125 C37.78300781 7.08089844 38.38242187 6.54851562 39 6 C39.763125 5.195625 40.52625 4.39125 41.3125 3.5625 C43 2 43 2 45 2 C45 3.65 45 5.3 45 7 C46.98 7 48.96 7 51 7 C51 8.65 51 10.3 51 12 C49.02 12 47.04 12 45 12 C45 14.31 45 16.62 45 19 C41.04 19 37.08 19 33 19 C33 20.98 33 22.96 33 25 C32 26 32 26 28.94897461 26.11352539 C27.60008729 26.11336634 26.25119386 26.10767612 24.90234375 26.09765625 C23.83905602 26.09553383 23.83905602 26.09553383 22.75428772 26.09336853 C20.48198288 26.08775443 18.20977525 26.07519963 15.9375 26.0625 C14.40039204 26.05748681 12.86328255 26.05292359 11.32617188 26.04882812 C7.55071333 26.0386297 3.77546596 26.01905732 0 26 C0 17.42 0 8.84 0 0 Z " fill="#868686" transform="translate(0,97)"/>
<path d="M0 0 C0 21.45 0 42.9 0 65 C-4.29 64.67 -8.58 64.34 -13 64 C-13 62.02 -13 60.04 -13 58 C-15.31 58 -17.62 58 -20 58 C-20 56.02 -20 54.04 -20 52 C-15.71 52 -11.42 52 -7 52 C-7 49.69 -7 47.38 -7 45 C-8.98 45 -10.96 45 -13 45 C-13 43.02 -13 41.04 -13 39 C-11.02 39 -9.04 39 -7 39 C-7 37.02 -7 35.04 -7 33 C-8.98 33 -10.96 33 -13 33 C-13 30.69 -13 28.38 -13 26 C-9.04 26 -5.08 26 -1 26 C-1 19.73 -1 13.46 -1 7 C-2.98 7 -4.96 7 -7 7 C-7 10.96 -7 14.92 -7 19 C-8.98 19 -10.96 19 -13 19 C-13 17.02 -13 15.04 -13 13 C-15.31 13 -17.62 13 -20 13 C-20 11.02 -20 9.04 -20 7 C-17.69 7 -15.38 7 -13 7 C-13 5.02 -13 3.04 -13 1 C-11.02087544 0.83283412 -9.04169915 0.66628044 -7.0625 0.5 C-5.40927734 0.36078125 -5.40927734 0.36078125 -3.72265625 0.21875 C-1 0 -1 0 0 0 Z " fill="#F7F7F7" transform="translate(123,45)"/>
<path d="M0 0 C2.31 0 4.62 0 7 0 C7 1.98 7 3.96 7 6 C8.98 6 10.96 6 13 6 C13 8.31 13 10.62 13 13 C11.02 13 9.04 13 7 13 C7 11.02 7 9.04 7 7 C5.02 7 3.04 7 1 7 C1 10.96 1 14.92 1 19 C3.31 19 5.62 19 8 19 C8 23.29 8 27.58 8 32 C5.69 32 3.38 32 1 32 C1 36.62 1 41.24 1 46 C-0.98 46 -2.96 46 -5 46 C-5 47.65 -5 49.3 -5 51 C-3.02 51 -1.04 51 1 51 C1 53.31 1 55.62 1 58 C0.67 58 0.34 58 0 58 C0 56.02 0 54.04 0 52 C-1.65 52 -3.3 52 -5 52 C-5 55.96 -5 59.92 -5 64 C-7.31 64 -9.62 64 -12 64 C-12 59.71 -12 55.42 -12 51 C-10.02 51 -8.04 51 -6 51 C-6 49.35 -6 47.7 -6 46 C-10.29 46 -14.58 46 -19 46 C-19 43.69 -19 41.38 -19 39 C-18.67 39 -18.34 39 -18 39 C-18 40.98 -18 42.96 -18 45 C-14.04 45 -10.08 45 -6 45 C-6 43.02 -6 41.04 -6 39 C-7.98 39 -9.96 39 -12 39 C-12 36.69 -12 34.38 -12 32 C-8.04 32 -4.08 32 0 32 C0 28.04 0 24.08 0 20 C-1.98 20 -3.96 20 -6 20 C-6 15.38 -6 10.76 -6 6 C-4.02 6 -2.04 6 0 6 C0 4.02 0 2.04 0 0 Z " fill="#7C7C7C" transform="translate(96,58)"/>
<path d="M0 0 C0.99 0.33 1.98 0.66 3 1 C3 1.99 3 2.98 3 4 C0.5 6.1875 0.5 6.1875 -2 8 C-1.67 9.32 -1.34 10.64 -1 12 C0.3921875 10.7625 0.3921875 10.7625 1.8125 9.5 C4.625 7 4.625 7 8 7 C7.42647107 10.87132028 5.51295648 13.08172796 3 16 C3.99 16.66 4.98 17.32 6 18 C6.38671875 17.55527344 6.7734375 17.11054688 7.171875 16.65234375 C7.69265625 16.08644531 8.2134375 15.52054688 8.75 14.9375 C9.26046875 14.36902344 9.7709375 13.80054688 10.296875 13.21484375 C12 12 12 12 14.203125 12.31640625 C14.79609375 12.54199219 15.3890625 12.76757812 16 13 C16 12.34 16 11.68 16 11 C14.68 10.34 13.36 9.68 12 9 C12 8.01 12 7.02 12 6 C11.360625 5.731875 10.72125 5.46375 10.0625 5.1875 C8 4 8 4 7 1 C9.31 1 11.62 1 14 1 C14 2.98 14 4.96 14 7 C15.98 7 17.96 7 20 7 C20 9.31 20 11.62 20 14 C21.98 14 23.96 14 26 14 C26.495 20.435 26.495 20.435 27 27 C25.51886719 26.96519531 24.03773437 26.93039063 22.51171875 26.89453125 C20.57032382 26.86639509 18.62891665 26.83909475 16.6875 26.8125 C15.22280273 26.77479492 15.22280273 26.77479492 13.72851562 26.73632812 C12.79072266 26.72666016 11.85292969 26.71699219 10.88671875 26.70703125 C10.02264404 26.6913208 9.15856934 26.67561035 8.26831055 26.65942383 C5.52137654 27.07186306 4.80460598 27.97369959 3 30 C2.34 30 1.68 30 1 30 C1 30.99 1 31.98 1 33 C-0.53125 34.38671875 -0.53125 34.38671875 -2.5 35.6875 C-3.1496875 36.12449219 -3.799375 36.56148437 -4.46875 37.01171875 C-4.9740625 37.33785156 -5.479375 37.66398437 -6 38 C-6.99 37.34 -7.98 36.68 -9 36 C-7.9171875 35.4121875 -7.9171875 35.4121875 -6.8125 34.8125 C-3.73505218 32.82925585 -1.40948554 30.75369776 1 28 C1 27.01 1 26.02 1 25 C1.99 25 2.98 25 4 25 C-0.75929803 19.42572933 -0.75929803 19.42572933 -5.9375 14.25 C-8 12 -8 12 -8 8 C-6.25 5.859375 -6.25 5.859375 -4 3.75 C-3.2575 3.04359375 -2.515 2.3371875 -1.75 1.609375 C-1.1725 1.07828125 -0.595 0.5471875 0 0 Z " fill="#EDEDED" transform="translate(96,12)"/>
<path d="M0 0 C2.31 0 4.62 0 7 0 C7 1.98 7 3.96 7 6 C7.969375 5.979375 8.93875 5.95875 9.9375 5.9375 C13 6 13 6 14 7 C14.04080783 8.99958364 14.04254356 11.00045254 14 13 C11.36 13 8.72 13 6 13 C6 14.98 6 16.96 6 19 C4.02 19 2.04 19 0 19 C0 23.95 0 28.9 0 34 C1.98 34 3.96 34 6 34 C4.125 37.875 4.125 37.875 3 39 C1.48071962 39.07179964 -0.04167482 39.08392007 -1.5625 39.0625 C-2.38878906 39.05347656 -3.21507812 39.04445312 -4.06640625 39.03515625 C-4.70449219 39.02355469 -5.34257812 39.01195312 -6 39 C-6 36.69 -6 34.38 -6 32 C-10.29 32 -14.58 32 -19 32 C-19 30.02 -19 28.04 -19 26 C-16.69 26 -14.38 26 -12 26 C-12 24.02 -12 22.04 -12 20 C-10.02 20 -8.04 20 -6 20 C-6 15.38 -6 10.76 -6 6 C-4.02 6 -2.04 6 0 6 C0 4.02 0 2.04 0 0 Z " fill="#F1F1F1" transform="translate(19,45)"/>
<path d="M0 0 C1.98 0 3.96 0 6 0 C6 3.96 6 7.92 6 12 C7.98 12 9.96 12 12 12 C12 16.29 12 20.58 12 25 C3.75 25 -4.5 25 -13 25 C-13 21.04 -13 17.08 -13 13 C-8.71 13 -4.42 13 0 13 C0 8.71 0 4.42 0 0 Z " fill="#050505" transform="translate(65,97)"/>
<path d="M0 0 C-1.52206009 2.62901288 -2.84365964 4.84365964 -5 7 C-6.34579891 6.72122737 -7.67646429 6.37032704 -9 6 C-11.58781148 5.77700773 -14.15853933 5.58709338 -16.75 5.4375 C-19.1425 5.293125 -21.535 5.14875 -24 5 C-24 10.28 -24 15.56 -24 21 C-22.68 21.33 -21.36 21.66 -20 22 C-19.67 20.68 -19.34 19.36 -19 18 C-16 19 -16 19 -14.61328125 21.21484375 C-13.96939453 22.56255859 -13.96939453 22.56255859 -13.3125 23.9375 C-12.87550781 24.83339844 -12.43851563 25.72929688 -11.98828125 26.65234375 C-11 29 -11 29 -11 31 C-11.639375 30.731875 -12.27875 30.46375 -12.9375 30.1875 C-16.91202261 28.64635858 -20.94884495 27.32390688 -25 26 C-25.66 26.66 -26.32 27.32 -27 28 C-27.99 28 -28.98 28 -30 28 C-30 18.76 -30 9.52 -30 0 C-25.42125 -0.185625 -20.8425 -0.37125 -16.125 -0.5625 C-14.68141113 -0.62381104 -13.23782227 -0.68512207 -11.75048828 -0.74829102 C-10.05255127 -0.81294556 -10.05255127 -0.81294556 -8.3203125 -0.87890625 C-6.57645264 -0.94960327 -6.57645264 -0.94960327 -4.79736328 -1.02172852 C-2 -1 -2 -1 0 0 Z " fill="#F4F4F4" transform="translate(69,39)"/>
<path d="M0 0 C0.33 0 0.66 0 1 0 C1 4.29 1 8.58 1 13 C-3.29 13 -7.58 13 -12 13 C-12 15.31 -12 17.62 -12 20 C-13.98 20 -15.96 20 -18 20 C-18 23.96 -18 27.92 -18 32 C-20.64 32 -23.28 32 -26 32 C-26 28.04 -26 24.08 -26 20 C-27.65 20 -29.3 20 -31 20 C-31 21.98 -31 23.96 -31 26 C-33.31 26 -35.62 26 -38 26 C-38 25.67 -38 25.34 -38 25 C-36.02 25 -34.04 25 -32 25 C-32 23.02 -32 21.04 -32 19 C-30.02 19 -28.04 19 -26 19 C-26 14.71 -26 10.42 -26 6 C-21.38 6 -16.76 6 -12 6 C-12 7.98 -12 9.96 -12 12 C-8.04 12 -4.08 12 0 12 C0 8.04 0 4.08 0 0 Z " fill="#838383" transform="translate(64,0)"/>
<path d="M0 0 C3.99432781 1.62061033 6.79558321 4.39339173 9.8125 7.375 C10.5849707 8.09816406 10.5849707 8.09816406 11.37304688 8.8359375 C12.83203125 10.2734375 12.83203125 10.2734375 15 13 C14.82421875 15.3515625 14.82421875 15.3515625 14 17 C10.25846263 15.75282088 8.62482484 13.90112219 6 11 C5.67 10.01 5.34 9.02 5 8 C4.34 8 3.68 8 3 8 C3.44472656 8.74765625 3.88945313 9.4953125 4.34765625 10.265625 C4.91355469 11.25046875 5.47945312 12.2353125 6.0625 13.25 C6.63097656 14.22453125 7.19945313 15.1990625 7.78515625 16.203125 C9 19 9 19 8.68359375 21.359375 C8.45800781 21.90078125 8.23242188 22.4421875 8 23 C3.14036821 22.39254603 -0.7405518 20.27241033 -5 18 C-4.48308594 18.45890625 -3.96617188 18.9178125 -3.43359375 19.390625 C-2.77488281 20.00421875 -2.11617187 20.6178125 -1.4375 21.25 C-0.77621094 21.85328125 -0.11492188 22.4565625 0.56640625 23.078125 C2 25 2 25 1.71484375 27.234375 C1.47894531 27.81703125 1.24304687 28.3996875 1 29 C-3.07376031 27.38989473 -5.76507069 24.46177729 -8.75 21.375 C-9.25660156 20.859375 -9.76320313 20.34375 -10.28515625 19.8125 C-11.52803902 18.54616661 -12.76465276 17.2736856 -14 16 C-13.1875 14.0625 -13.1875 14.0625 -12 12 C-9 11 -9 11 -6.08203125 12.21484375 C-5.00308594 12.78332031 -3.92414062 13.35179688 -2.8125 13.9375 C-1.72582031 14.50339844 -0.63914062 15.06929687 0.48046875 15.65234375 C1.31191406 16.09707031 2.14335938 16.54179688 3 17 C2.54367188 16.18015625 2.08734375 15.3603125 1.6171875 14.515625 C1.04226562 13.43796875 0.46734375 12.3603125 -0.125 11.25 C-0.70507812 10.18265625 -1.28515625 9.1153125 -1.8828125 8.015625 C-3 5 -3 5 -2.2421875 2.671875 C-1 1 -1 1 0 0 Z " fill="#252525" transform="translate(55,53)"/>
<path d="M0 0 C4.29 0 8.58 0 13 0 C13 4.29 13 8.58 13 13 C11.02 13 9.04 13 7 13 C7 16.96 7 20.92 7 25 C8.65 25 10.3 25 12 25 C12 26.98 12 28.96 12 31 C14.31 31 16.62 31 19 31 C19.66 32.32 20.32 33.64 21 35 C19.68 35.66 18.36 36.32 17 37 C15.16086305 35.5489926 13.3288247 34.08898341 11.5 32.625 C10.4790625 31.81289063 9.458125 31.00078125 8.40625 30.1640625 C7.6121875 29.44992188 6.818125 28.73578125 6 28 C6 27.34 6 26.68 6 26 C1.71 26 -2.58 26 -7 26 C-7 23.69 -7 21.38 -7 19 C-4.69 19 -2.38 19 0 19 C0 20.98 0 22.96 0 25 C1.98 25 3.96 25 6 25 C6 21.04 6 17.08 6 13 C4.02 13 2.04 13 0 13 C0 8.71 0 4.42 0 0 Z " fill="#7E7E7E" transform="translate(71,0)"/>
<path d="M0 0 C2.31 0 4.62 0 7 0 C7 1.98 7 3.96 7 6 C7.85464844 5.98839844 8.70929688 5.97679688 9.58984375 5.96484375 C10.69457031 5.95582031 11.79929687 5.94679688 12.9375 5.9375 C14.03964844 5.92589844 15.14179687 5.91429688 16.27734375 5.90234375 C19 6 19 6 20 7 C20.14393457 11.33530918 20.04212061 15.66157731 20 20 C13.4 20 6.8 20 0 20 C0 15.38 0 10.76 0 6 C1.98 6 3.96 6 6 6 C6 4.35 6 2.7 6 1 C4.02 1 2.04 1 0 1 C0 0.67 0 0.34 0 0 Z " fill="#767676" transform="translate(103,103)"/>
<path d="M0 0 C9.03805497 -0.7230444 9.03805497 -0.7230444 11.77734375 1.3359375 C13.125 3 13.125 3 15 6 C14.34 6 13.68 6 13 6 C13 8.31 13 10.62 13 13 C14.98 13 16.96 13 19 13 C19 14.98 19 16.96 19 19 C12.73 19 6.46 19 0 19 C0 12.73 0 6.46 0 0 Z " fill="#0A0A0A" transform="translate(0,97)"/>
<path d="M0 0 C4.29 0 8.58 0 13 0 C13 4.62 13 9.24 13 14 C11.02 14 9.04 14 7 14 C7 15.65 7 17.3 7 19 C8.98 19 10.96 19 13 19 C13 21.31 13 23.62 13 26 C12.67 26 12.34 26 12 26 C12 24.02 12 22.04 12 20 C10.35 20 8.7 20 7 20 C7 23.96 7 27.92 7 32 C4.69 32 2.38 32 0 32 C0 27.71 0 23.42 0 19 C1.98 19 3.96 19 6 19 C6 17.35 6 15.7 6 14 C1.71 14 -2.58 14 -7 14 C-7 11.69 -7 9.38 -7 7 C-6.67 7 -6.34 7 -6 7 C-6 8.98 -6 10.96 -6 13 C-2.04 13 1.92 13 6 13 C6 11.02 6 9.04 6 7 C4.02 7 2.04 7 0 7 C0 4.69 0 2.38 0 0 Z " fill="#969696" transform="translate(84,90)"/>
<path d="M0 0 C2.31 0 4.62 0 7 0 C7 1.98 7 3.96 7 6 C8.98 6 10.96 6 13 6 C13 8.64 13 11.28 13 14 C11.02 14 9.04 14 7 14 C7 17.96 7 21.92 7 26 C8.98 26 10.96 26 13 26 C13 26.33 13 26.66 13 27 C10.69 27 8.38 27 6 27 C6 22.71 6 18.42 6 14 C4.35 14 2.7 14 1 14 C1 19.94 1 25.88 1 32 C2.65 32 4.3 32 6 32 C6 36.29 6 40.58 6 45 C4.02 45 2.04 45 0 45 C0 30.15 0 15.3 0 0 Z " fill="#6A6A6A" transform="translate(0,19)"/>
<path d="M0 0 C2.26921536 -0.13489391 4.5407067 -0.23193995 6.8125 -0.3125 C8.70935547 -0.39951172 8.70935547 -0.39951172 10.64453125 -0.48828125 C11.75183594 -0.32714844 12.85914063 -0.16601562 14 0 C15.765625 2.48828125 15.765625 2.48828125 17 5 C20.48268416 5.5927973 22.21342898 5.5552266 25.125 3.5 C25.74375 3.005 26.3625 2.51 27 2 C28.32 2 29.64 2 31 2 C31.125 4.375 31.125 4.375 31 7 C28.3144406 9.6855594 25.62378672 10.06049974 22 11 C22 11.33 22 11.66 22 12 C25.92612596 12.57256004 27.91988086 12.74950876 31.24609375 10.44140625 C33.23043203 8.68344524 35.14261973 6.89115082 37 5 C37.66 5.33 38.32 5.66 39 6 C37.91803946 8.5245746 36.99366244 10.00576142 34.9375 11.875 C32.5209638 14.52539454 32.31939776 16.48662462 32 20 C28.04 20 24.08 20 20 20 C20 18.02 20 16.04 20 14 C17.69 14 15.38 14 13 14 C13 11 13 8 13 5 C11.30697846 2.7220142 10.32671925 2.06740192 7.51953125 1.48828125 C6.17955078 1.40126953 6.17955078 1.40126953 4.8125 1.3125 C3.91144531 1.24675781 3.01039062 1.18101563 2.08203125 1.11328125 C1.39496094 1.07589844 0.70789062 1.03851563 0 1 C0 0.67 0 0.34 0 0 Z " fill="#F1F1F1" transform="translate(0,96)"/>
<path d="M0 0 C0 8.58 0 17.16 0 26 C-0.33 26 -0.66 26 -1 26 C-1 19.73 -1 13.46 -1 7 C-2.98 7 -4.96 7 -7 7 C-7 10.96 -7 14.92 -7 19 C-8.98 19 -10.96 19 -13 19 C-13 17.02 -13 15.04 -13 13 C-15.31 13 -17.62 13 -20 13 C-20 11.02 -20 9.04 -20 7 C-17.69 7 -15.38 7 -13 7 C-13 5.02 -13 3.04 -13 1 C-11.02087544 0.83283412 -9.04169915 0.66628044 -7.0625 0.5 C-5.40927734 0.36078125 -5.40927734 0.36078125 -3.72265625 0.21875 C-1 0 -1 0 0 0 Z " fill="#EAEAEA" transform="translate(123,45)"/>
<path d="M0 0 C1.65 0 3.3 0 5 0 C5 1.98 5 3.96 5 6 C7.31 6 9.62 6 12 6 C12 9.96 12 13.92 12 18 C8.04 18 4.08 18 0 18 C0 16.02 0 14.04 0 12 C-1.98 12 -3.96 12 -6 12 C-6 10.02 -6 8.04 -6 6 C-4.02 6 -2.04 6 0 6 C0 4.02 0 2.04 0 0 Z " fill="#FCFCFC" transform="translate(52,91)"/>
<path d="M0 0 C2 2 2 2 2.375 5.3125 C1.94805086 9.51083317 0.88994071 11.01974864 -2 14 C-1.319375 14.5775 -0.63875 15.155 0.0625 15.75 C0.701875 16.4925 1.34125 17.235 2 18 C1.75 20.25 1.75 20.25 1 22 C-2 22 -2 22 -4.4375 19.8125 C-6.05983065 18.03189319 -7.63095079 16.20203283 -9.125 14.3125 C-10.96561073 11.80846331 -10.96561073 11.80846331 -14 10 C-13.24992042 5.98794641 -11.66087217 3.97996469 -8.7578125 1.203125 C-5.84070974 -0.79346978 -3.38310074 -0.52047704 0 0 Z " fill="#161616" transform="translate(75,41)"/>
<path d="M0 0 C0.99 0.33 1.98 0.66 3 1 C3 1.99 3 2.98 3 4 C0.5 6.1875 0.5 6.1875 -2 8 C-1.67 9.32 -1.34 10.64 -1 12 C0.3921875 10.7625 0.3921875 10.7625 1.8125 9.5 C4.625 7 4.625 7 8 7 C7.42647107 10.87132028 5.51295648 13.08172796 3 16 C3.99 16.66 4.98 17.32 6 18 C6.39832031 17.566875 6.79664062 17.13375 7.20703125 16.6875 C7.73683594 16.130625 8.26664063 15.57375 8.8125 15 C9.33457031 14.443125 9.85664062 13.88625 10.39453125 13.3125 C12 12 12 12 15 12 C14.45015228 15.87511727 12.72444669 17.59576506 9.9375 20.25 C9.20402344 20.95640625 8.47054687 21.6628125 7.71484375 22.390625 C7.14894531 22.92171875 6.58304688 23.4528125 6 24 C1.54613956 22.39573119 -0.16470024 20.80993405 -3 17 C-3.9075 16.154375 -4.815 15.30875 -5.75 14.4375 C-8 12 -8 12 -8 8 C-6.25 5.859375 -6.25 5.859375 -4 3.75 C-3.2575 3.04359375 -2.515 2.3371875 -1.75 1.609375 C-1.1725 1.07828125 -0.595 0.5471875 0 0 Z " fill="#191919" transform="translate(96,12)"/>
<path d="M0 0 C5.15590135 0.29833851 9.31855579 2.33284465 13.875 4.5625 C14.56335938 4.89185547 15.25171875 5.22121094 15.9609375 5.56054688 C17.6438733 6.36695361 19.32240293 7.18254494 21 8 C20.01 9.485 20.01 9.485 19 11 C17.68 11 16.36 11 15 11 C15 10.34 15 9.68 15 9 C11.7356653 11.23796089 11.7356653 11.23796089 9 14 C8.97172423 17.25789019 8.97172423 17.25789019 10 20 C9.01 20.66 8.02 21.32 7 22 C3.00418573 15.80648788 0.16355639 9.03155826 -2 2 C-1.34 1.34 -0.68 0.68 0 0 Z " fill="#181818" transform="translate(32,76)"/>
<path d="M0 0 C0 0.99 0 1.98 0 3 C-2.31 3.66 -4.62 4.32 -7 5 C-7.33 6.32 -7.66 7.64 -8 9 C-6.989375 8.525625 -5.97875 8.05125 -4.9375 7.5625 C-1.30157494 6.02110378 2.01849378 5.15313485 6 5 C7.9375 6.0625 7.9375 6.0625 9 8 C9.59391744 11.90288606 9.33267605 13.50098592 7.125 16.8125 C4.2342226 19.78830026 3.61077792 19.98946935 -0.625 20.0625 C-1.73875 20.041875 -2.8525 20.02125 -4 20 C-4 19.01 -4 18.02 -4 17 C-3.43410156 16.84144531 -2.86820313 16.68289062 -2.28515625 16.51953125 C-0.06779058 15.81418295 1.95193129 15.10846848 4 14 C5.13440778 11.42919865 5.13440778 11.42919865 5 9 C2.0280615 10.12451727 -0.33440687 11.22293791 -3 13 C-6.15413751 13.32855599 -8.15523346 13.53501881 -10.875 11.8125 C-12.46296399 9.25411357 -12.56504413 7.96648169 -12 5 C-8.42811969 0.12925412 -5.92529172 -0.58091095 0 0 Z " fill="#181818" transform="translate(26,89)"/>
<path d="M0 0 C4.29 0 8.58 0 13 0 C13 2.31 13 4.62 13 7 C14.43861294 6.91253716 15.87597508 6.80434652 17.3125 6.6875 C18.11300781 6.62949219 18.91351562 6.57148437 19.73828125 6.51171875 C22.36272334 5.91793306 23.30820672 5.04219706 25 3 C25.99 3.33 26.98 3.66 28 4 C28 4.66 28 5.32 28 6 C27.01 6 26.02 6 25 6 C25 6.66 25 7.32 25 8 C23.576875 8.12375 23.576875 8.12375 22.125 8.25 C21.09375 8.4975 20.0625 8.745 19 9 C17.83333333 10.91666667 17.83333333 10.91666667 17 13 C14.875 14.25 14.875 14.25 13 15 C13 14.34 13 13.68 13 13 C11.02 13 9.04 13 7 13 C7 11.02 7 9.04 7 7 C4.69 7 2.38 7 0 7 C0 4.69 0 2.38 0 0 Z " fill="#151515" transform="translate(0,77)"/>
<path d="M0 0 C6.6 0 13.2 0 20 0 C20 1.98 20 3.96 20 6 C19 7 19 7 16.27734375 7.09765625 C14.62412109 7.08025391 14.62412109 7.08025391 12.9375 7.0625 C11.28041016 7.04896484 11.28041016 7.04896484 9.58984375 7.03515625 C8.73519531 7.02355469 7.88054688 7.01195312 7 7 C7 8.98 7 10.96 7 13 C4.69 13 2.38 13 0 13 C0 8.71 0 4.42 0 0 Z " fill="#1F1F1F" transform="translate(0,0)"/>
<path d="M0 0 C0 1.65 0 3.3 0 5 C1.98 5 3.96 5 6 5 C6 6.65 6 8.3 6 10 C4.02 10 2.04 10 0 10 C0 12.31 0 14.62 0 17 C-3.96 17 -7.92 17 -12 17 C-12.55905131 13.16650534 -12.73863151 11.1059617 -10.546875 7.82421875 C-3.73823126 0 -3.73823126 0 0 0 Z " fill="#0B0B0B" transform="translate(45,99)"/>
<path d="M0 0 C1.65 0 3.3 0 5 0 C5.33 4.29 5.66 8.58 6 13 C-0.6 13 -7.2 13 -14 13 C-13.67 10.69 -13.34 8.38 -13 6 C-8.71 6 -4.42 6 0 6 C0 4.02 0 2.04 0 0 Z " fill="#F7F7F7" transform="translate(46,110)"/>
<path d="M0 0 C2.31 0 4.62 0 7 0 C7 4.29 7 8.58 7 13 C5.02 13 3.04 13 1 13 C1 15.31 1 17.62 1 20 C-1.31 20 -3.62 20 -6 20 C-6.04241723 17.66705225 -6.04092937 15.33297433 -6 13 C-5.67 12.67 -5.34 12.34 -5 12 C-3.35 12 -1.7 12 0 12 C0 8.04 0 4.08 0 0 Z " fill="#101010" transform="translate(25,0)"/>
<path d="M0 0 C1.65 0 3.3 0 5 0 C5 6.27 5 12.54 5 19 C1.04 19 -2.92 19 -7 19 C-7 17.02 -7 15.04 -7 13 C-4.69 13 -2.38 13 0 13 C0 8.71 0 4.42 0 0 Z " fill="#040404" transform="translate(117,52)"/>
<path d="M0 0 C2.31 0 4.62 0 7 0 C7 1.98 7 3.96 7 6 C8.98 6 10.96 6 13 6 C13 8.31 13 10.62 13 13 C14.98 13 16.96 13 19 13 C19 14.98 19 16.96 19 19 C14.71 19 10.42 19 6 19 C7.33333333 16.33333333 8.66666667 13.66666667 10 11 C9.175 10.566875 8.35 10.13375 7.5 9.6875 C6.675 9.130625 5.85 8.57375 5 8 C5 7.01 5 6.02 5 5 C4.360625 4.731875 3.72125 4.46375 3.0625 4.1875 C1 3 1 3 0 0 Z " fill="#2C2C2C" transform="translate(103,13)"/>
<path d="M0 0 C4.62 0 9.24 0 14 0 C13.34 1.32 12.68 2.64 12 4 C11.34 4 10.68 4 10 4 C9.67 4.99 9.34 5.98 9 7 C8.34 7 7.68 7 7 7 C5.35173889 9.96687001 4.55728913 12.65626525 4 16 C2.68 15.67 1.36 15.34 0 15 C0 10.05 0 5.1 0 0 Z " fill="#1E1E1E" transform="translate(45,45)"/>
<path d="M0 0 C1.65 0 3.3 0 5 0 C5 1.98 5 3.96 5 6 C7.31 6 9.62 6 12 6 C12 8.31 12 10.62 12 13 C5.73 13 -0.54 13 -7 13 C-7 12.67 -7 12.34 -7 12 C-4.69 12 -2.38 12 0 12 C0 8.04 0 4.08 0 0 Z " fill="#F3F3F3" transform="translate(91,110)"/>
<path d="M0 0 C3.45201639 1.47721422 5.64961936 3.43794001 8.25 6.125 C8.95640625 6.84945312 9.6628125 7.57390625 10.390625 8.3203125 C11.18726562 9.15175781 11.18726562 9.15175781 12 10 C14.8605891 8.64062915 16.85927699 7.35479531 19 5 C19.99 5.33 20.98 5.66 22 6 C20.46583702 9.98882376 17.5752926 13.64783382 14 16 C10.81600925 15.56290201 9.19521148 14.56027272 6.984375 12.27734375 C6.45585938 11.73916016 5.92734375 11.20097656 5.3828125 10.64648438 C4.84398438 10.08251953 4.30515625 9.51855469 3.75 8.9375 C3.19570312 8.36966797 2.64140625 7.80183594 2.0703125 7.21679688 C0.70665786 5.81787531 -0.64760417 4.40980886 -2 3 C-1.34 2.01 -0.68 1.02 0 0 Z " fill="#181818" transform="translate(76,32)"/>
<path d="M0 0 C6.27 0 12.54 0 19 0 C19 1.98 19 3.96 19 6 C12.73 6 6.46 6 0 6 C0 4.02 0 2.04 0 0 Z " fill="#FFFFFF" transform="translate(0,117)"/>
<path d="M0 0 C3.96 0 7.92 0 12 0 C12 3.96 12 7.92 12 12 C10.02 12 8.04 12 6 12 C6 10.02 6 8.04 6 6 C4.02 6 2.04 6 0 6 C0 4.02 0 2.04 0 0 Z " fill="#F3F3F3" transform="translate(84,91)"/>
<path d="M0 0 C1.98 0 3.96 0 6 0 C6 2.31 6 4.62 6 7 C7.98 7 9.96 7 12 7 C12 7.99 12 8.98 12 10 C12.66 10 13.32 10 14 10 C13.67 10.99 13.34 11.98 13 13 C8.71 12.67 4.42 12.34 0 12 C0 8.04 0 4.08 0 0 Z " fill="#FCFCFC" transform="translate(0,84)"/>
<path d="M0 0 C3.96 0 7.92 0 12 0 C12 1.65 12 3.3 12 5 C10.02 5 8.04 5 6 5 C6 7.31 6 9.62 6 12 C4.02 12 2.04 12 0 12 C0 8.04 0 4.08 0 0 Z " fill="#020202" transform="translate(39,7)"/>
<path d="M0 0 C0.33 0.66 0.66 1.32 1 2 C2.97888961 2.72693904 4.97954558 3.39816251 7 4 C8.32 2.68 9.64 1.36 11 0 C11.6875 1.75 11.6875 1.75 12 4 C10.5625 6.25 10.5625 6.25 9 8 C9.680625 8.5775 10.36125 9.155 11.0625 9.75 C11.701875 10.4925 12.34125 11.235 13 12 C12.75 14.25 12.75 14.25 12 16 C9 16 9 16 6.6875 14 C3.46765912 10.59364394 0.73997383 6.7945342 -2 3 C-1.34 2.01 -0.68 1.02 0 0 Z " fill="#141414" transform="translate(64,47)"/>
<path d="M0 0 C3.99432781 1.62061033 6.79558321 4.39339173 9.8125 7.375 C10.5849707 8.09816406 10.5849707 8.09816406 11.37304688 8.8359375 C12.83203125 10.2734375 12.83203125 10.2734375 15 13 C14.82421875 15.3515625 14.82421875 15.3515625 14 17 C9.28645804 15.42881935 6.70787591 12.06181386 4 8 C2.35 8.33 0.7 8.66 -1 9 C-1.66 7.02 -2.32 5.04 -3 3 C-2.01 2.01 -1.02 1.02 0 0 Z " fill="#181818" transform="translate(55,53)"/>
<path d="M0 0 C2 0.25 2 0.25 4 1 C5 4 5 4 4 7 C4.556875 7.226875 5.11375 7.45375 5.6875 7.6875 C8.71572375 9.40622159 10.77323664 11.32788397 13 14 C12.8125 16.3125 12.8125 16.3125 12 18 C7.92623969 16.38989473 5.23492931 13.46177729 2.25 10.375 C1.74339844 9.859375 1.23679687 9.34375 0.71484375 8.8125 C-0.52803902 7.54616661 -1.76465276 6.2736856 -3 5 C-1.125 1.125 -1.125 1.125 0 0 Z " fill="#181818" transform="translate(44,64)"/>
<path d="M0 0 C0 1.98 0 3.96 0 6 C-1.98 6 -3.96 6 -6 6 C-6 7.98 -6 9.96 -6 12 C-4.02 12 -2.04 12 0 12 C0 13.98 0 15.96 0 18 C3.96 18 7.92 18 12 18 C12 14.04 12 10.08 12 6 C12.33 6 12.66 6 13 6 C13 10.29 13 14.58 13 19 C8.71 19 4.42 19 0 19 C0 22.96 0 26.92 0 31 C-0.33 31 -0.66 31 -1 31 C-1 27.04 -1 23.08 -1 19 C-2.65 19 -4.3 19 -6 19 C-6 20.98 -6 22.96 -6 25 C-6.33 25 -6.66 25 -7 25 C-7 22.69 -7 20.38 -7 18 C-5.02 18 -3.04 18 -1 18 C-1 16.35 -1 14.7 -1 13 C-2.98 13 -4.96 13 -7 13 C-7.875 10.4375 -7.875 10.4375 -8 7 C-3.71057884 0 -3.71057884 0 0 0 Z " fill="#919191" transform="translate(52,91)"/>
<path d="M0 0 C4.29 0 8.58 0 13 0 C13 2.31 13 4.62 13 7 C8.71 7 4.42 7 0 7 C0 4.69 0 2.38 0 0 Z " fill="#F3F3F3" transform="translate(110,116)"/>
<path d="M0 0 C0 3.96 0 7.92 0 12 C-3.96 12 -7.92 12 -12 12 C-1.88235294 0 -1.88235294 0 0 0 Z " fill="#0E0E0E" transform="translate(77,65)"/>
<path d="M0 0 C4.29 0 8.58 0 13 0 C13 1.98 13 3.96 13 6 C8.71 6 4.42 6 0 6 C0 4.02 0 2.04 0 0 Z " fill="#131313" transform="translate(110,110)"/>
<path d="M0 0 C1.98 0 3.96 0 6 0 C6 4.29 6 8.58 6 13 C4.02 13 2.04 13 0 13 C0 8.71 0 4.42 0 0 Z " fill="#121212" transform="translate(78,0)"/>
<path d="M0 0 C1.98 0 3.96 0 6 0 C6 4.29 6 8.58 6 13 C4.02 13 2.04 13 0 13 C0 8.71 0 4.42 0 0 Z " fill="#F4F4F4" transform="translate(71,0)"/>
<path d="M0 0 C0.33 0 0.66 0 1 0 C1 4.29 1 8.58 1 13 C-1.31 13 -3.62 13 -6 13 C-6 16.96 -6 20.92 -6 25 C-6.33 25 -6.66 25 -7 25 C-7 20.71 -7 16.42 -7 12 C-8.98 12 -10.96 12 -13 12 C-13 10.02 -13 8.04 -13 6 C-10.69 6 -8.38 6 -6 6 C-6 7.98 -6 9.96 -6 12 C-4.02 12 -2.04 12 0 12 C0 8.04 0 4.08 0 0 Z " fill="#6B6B6B" transform="translate(116,52)"/>
<path d="M0 0 C1.98 0 3.96 0 6 0 C6 3.96 6 7.92 6 12 C4.02 12 2.04 12 0 12 C0 8.04 0 4.08 0 0 Z " fill="#060606" transform="translate(84,110)"/>
<path d="M0 0 C1.98 0 3.96 0 6 0 C6 3.96 6 7.92 6 12 C4.02 12 2.04 12 0 12 C0 8.04 0 4.08 0 0 Z " fill="#F7F7F7" transform="translate(97,78)"/>
<path d="M0 0 C1.98 0 3.96 0 6 0 C6 3.96 6 7.92 6 12 C4.02 12 2.04 12 0 12 C0 8.04 0 4.08 0 0 Z " fill="#FDFDFD" transform="translate(0,52)"/>
<path d="M0 0 C1.98 0 3.96 0 6 0 C6 3.96 6 7.92 6 12 C4.02 12 2.04 12 0 12 C0 8.04 0 4.08 0 0 Z " fill="#F6F6F6" transform="translate(39,20)"/>
<path d="M0 0 C0.33 0 0.66 0 1 0 C1 4.29 1 8.58 1 13 C5.29 13 9.58 13 14 13 C14 13.33 14 13.66 14 14 C12.02 14 10.04 14 8 14 C8 17.96 8 21.92 8 26 C7.67 26 7.34 26 7 26 C7 22.04 7 18.08 7 14 C5.02 14 3.04 14 1 14 C1 17.96 1 21.92 1 26 C0.67 26 0.34 26 0 26 C0 22.04 0 18.08 0 14 C-1.65 14 -3.3 14 -5 14 C-5 15.98 -5 17.96 -5 20 C-7.31 20 -9.62 20 -12 20 C-12 19.67 -12 19.34 -12 19 C-10.02 19 -8.04 19 -6 19 C-6 17.02 -6 15.04 -6 13 C-4.02 13 -2.04 13 0 13 C0 8.71 0 4.42 0 0 Z " fill="#777777" transform="translate(38,6)"/>
<path d="M0 0 C0.33 0 0.66 0 1 0 C1 3.96 1 7.92 1 12 C2.98 12 4.96 12 7 12 C7 12.33 7 12.66 7 13 C5.02 13 3.04 13 1 13 C1 14.98 1 16.96 1 19 C-1.31 19 -3.62 19 -6 19 C-6 16.69 -6 14.38 -6 12 C-4.02 12 -2.04 12 0 12 C0 8.04 0 4.08 0 0 Z " fill="#0F0F0F" transform="translate(6,52)"/>
<path d="M0 0 C0.33 0 0.66 0 1 0 C1 6.6 1 13.2 1 20 C-1.31 20 -3.62 20 -6 20 C-6.04241723 17.66705225 -6.04092937 15.33297433 -6 13 C-5.67 12.67 -5.34 12.34 -5 12 C-3.35 12 -1.7 12 0 12 C0 8.04 0 4.08 0 0 Z " fill="#868686" transform="translate(25,0)"/>
<path d="M0 0 C2.31 0 4.62 0 7 0 C7 1.98 7 3.96 7 6 C8.98 6 10.96 6 13 6 C13 6.33 13 6.66 13 7 C6.73 7 0.46 7 -6 7 C-6 6.67 -6 6.34 -6 6 C-4.02 6 -2.04 6 0 6 C0 4.02 0 2.04 0 0 Z " fill="#7C7C7C" transform="translate(64,90)"/>
<path d="M0 0 C3.96 0 7.92 0 12 0 C12 1.65 12 3.3 12 5 C8.04 5 4.08 5 0 5 C0 3.35 0 1.7 0 0 Z " fill="#010101" transform="translate(20,117)"/>
<path d="M0 0 C1.65 0 3.3 0 5 0 C5 3.96 5 7.92 5 12 C3.35 12 1.7 12 0 12 C0 8.04 0 4.08 0 0 Z " fill="#FBFBFB" transform="translate(91,65)"/>
<path d="M0 0 C1.65 0 3.3 0 5 0 C5 3.96 5 7.92 5 12 C3.35 12 1.7 12 0 12 C0 8.04 0 4.08 0 0 Z " fill="#010101" transform="translate(20,65)"/>
<path d="M0 0 C1.32 0 2.64 0 4 0 C3.70554242 3.43533844 2.98263518 5.02298284 0.875 7.8125 C-2.67113339 10.51064497 -4.64770828 10.42669527 -9 10 C-9 9.01 -9 8.02 -9 7 C-8.43410156 6.82984375 -7.86820313 6.6596875 -7.28515625 6.484375 C-6.18494141 6.12085937 -6.18494141 6.12085937 -5.0625 5.75 C-4.33160156 5.51796875 -3.60070312 5.2859375 -2.84765625 5.046875 C-0.79429444 4.1492447 -0.79429444 4.1492447 -0.24609375 1.890625 C-0.16488281 1.26671875 -0.08367188 0.6428125 0 0 Z " fill="#272727" transform="translate(31,99)"/>
<path d="M0 0 C1.98 0 3.96 0 6 0 C6 1.65 6 3.3 6 5 C8.31 5 10.62 5 13 5 C13.66 6.32 14.32 7.64 15 9 C13.02 9.99 13.02 9.99 11 11 C9.16086305 9.5489926 7.3288247 8.08898341 5.5 6.625 C4.4790625 5.81289063 3.458125 5.00078125 2.40625 4.1640625 C1.6121875 3.44992188 0.818125 2.73578125 0 2 C0 1.34 0 0.68 0 0 Z " fill="#0D0D0D" transform="translate(77,26)"/>
<path d="M0 0 C1.134375 0.020625 2.26875 0.04125 3.4375 0.0625 C3.4375 2.0425 3.4375 4.0225 3.4375 6.0625 C-0.8525 6.0625 -5.1425 6.0625 -9.5625 6.0625 C-3.5625 0.0625 -3.5625 0.0625 0 0 Z " fill="#070707" transform="translate(118.5625,25.9375)"/>
<path d="M0 0 C0.33 0 0.66 0 1 0 C1 1.98 1 3.96 1 6 C2.98 6 4.96 6 7 6 C7 6.33 7 6.66 7 7 C5.02 7 3.04 7 1 7 C1 11.29 1 15.58 1 20 C-1.31 20 -3.62 20 -6 20 C-6 15.38 -6 10.76 -6 6 C-4.02 6 -2.04 6 0 6 C0 4.02 0 2.04 0 0 Z M-5 7 C-5 10.96 -5 14.92 -5 19 C-3.35 19 -1.7 19 0 19 C0 15.04 0 11.08 0 7 C-1.65 7 -3.3 7 -5 7 Z " fill="#7A7A7A" transform="translate(25,58)"/>
<path d="M0 0 C1.98 0.99 3.96 1.98 6 3 C4.125 8.75 4.125 8.75 3 11 C2.01 10.67 1.02 10.34 0 10 C-1.1875 6.4375 -1.1875 6.4375 -2 3 C-1.34 2.67 -0.68 2.34 0 2 C0 1.34 0 0.68 0 0 Z " fill="#272727" transform="translate(37,77)"/>
<path d="M0 0 C2.31 0 4.62 0 7 0 C7 2.31 7 4.62 7 7 C4.69 7 2.38 7 0 7 C0 4.69 0 2.38 0 0 Z " fill="#323232" transform="translate(116,6)"/>
<path d="M0 0 C1.8125 1.5 1.8125 1.5 3 3 C2.67 3.99 2.34 4.98 2 6 C0.948125 5.814375 -0.10375 5.62875 -1.1875 5.4375 C-4.57119882 5.04920669 -6.76425888 5.11752515 -10 6 C-7.21797642 1.06823093 -5.83557235 -0.56932413 0 0 Z " fill="#121212" transform="translate(32,94)"/>
<path d="M0 0 C0.33 0.99 0.66 1.98 1 3 C-0.28965176 4.37562854 -1.62689293 5.70766393 -3 7 C-3.66 7 -4.32 7 -5 7 C-5 7.99 -5 8.98 -5 10 C-6.53125 11.38671875 -6.53125 11.38671875 -8.5 12.6875 C-9.47453125 13.34298828 -9.47453125 13.34298828 -10.46875 14.01171875 C-10.9740625 14.33785156 -11.479375 14.66398437 -12 15 C-12.99 14.34 -13.98 13.68 -15 13 C-14.278125 12.608125 -13.55625 12.21625 -12.8125 11.8125 C-9.73505218 9.82925585 -7.40948554 7.75369776 -5 5 C-5 4.01 -5 3.02 -5 2 C-3.35 1.34 -1.7 0.68 0 0 Z " fill="#D8D8D8" transform="translate(102,35)"/>
<path d="M0 0 C4.62 0 9.24 0 14 0 C14.99 1.98 15.98 3.96 17 6 C16.67 6.66 16.34 7.32 16 8 C15.34 8 14.68 8 14 8 C14 9.65 14 11.3 14 13 C15.65 13 17.3 13 19 13 C19 13.33 19 13.66 19 14 C17.02 14 15.04 14 13 14 C13 11 13 8 13 5 C11.30697846 2.7220142 10.32671925 2.06740192 7.51953125 1.48828125 C6.17955078 1.40126953 6.17955078 1.40126953 4.8125 1.3125 C3.91144531 1.24675781 3.01039062 1.18101563 2.08203125 1.11328125 C1.39496094 1.07589844 0.70789062 1.03851563 0 1 C0 0.67 0 0.34 0 0 Z " fill="#BDBDBD" transform="translate(0,96)"/>
<path d="M0 0 C0 1.98 0 3.96 0 6 C-1.98 6 -3.96 6 -6 6 C-6 7.98 -6 9.96 -6 12 C-4.02 12 -2.04 12 0 12 C0 13.98 0 15.96 0 18 C-0.33 18 -0.66 18 -1 18 C-1 16.35 -1 14.7 -1 13 C-2.98 13 -4.96 13 -7 13 C-7.875 10.4375 -7.875 10.4375 -8 7 C-3.71057884 0 -3.71057884 0 0 0 Z " fill="#535353" transform="translate(52,91)"/>
<path d="M0 0 C2.0625 0.1875 2.0625 0.1875 4 1 C4.33 1.99 4.66 2.98 5 4 C3.5625 6.1875 3.5625 6.1875 2 8 C0.68 7.34 -0.64 6.68 -2 6 C-2 2 -2 2 0 0 Z " fill="#E3E3E3" transform="translate(69,44)"/>
<path d="M0 0 C2.31 0 4.62 0 7 0 C7 1.98 7 3.96 7 6 C4.69 6 2.38 6 0 6 C0 4.02 0 2.04 0 0 Z " fill="#DFDFDF" transform="translate(45,13)"/>
<path d="M0 0 C1.11020508 0.02618408 2.22041016 0.05236816 3.36425781 0.0793457 C4.56953125 0.09545898 5.77480469 0.11157227 7.01660156 0.12817383 C8.27085938 0.17006836 9.52511719 0.21196289 10.81738281 0.25512695 C12.72197266 0.28896484 12.72197266 0.28896484 14.66503906 0.32348633 C17.80034054 0.38242057 20.93326877 0.46465616 24.06738281 0.56762695 C24.06738281 0.89762695 24.06738281 1.22762695 24.06738281 1.56762695 C22.96281738 1.58164551 22.96281738 1.58164551 21.8359375 1.59594727 C18.49574063 1.6496685 15.15694162 1.73331317 11.81738281 1.81762695 C10.65851563 1.83180664 9.49964844 1.84598633 8.30566406 1.8605957 C7.190625 1.89282227 6.07558594 1.92504883 4.92675781 1.95825195 C3.9003418 1.97919922 2.87392578 2.00014648 1.81640625 2.02172852 C-1.55616051 2.69144959 -2.76651638 3.96649335 -4.93261719 6.56762695 C-5.59261719 6.23762695 -6.25261719 5.90762695 -6.93261719 5.56762695 C-3.78768552 0.73313094 -3.78768552 0.73313094 0 0 Z " fill="#202020" transform="translate(59.9326171875,83.432373046875)"/>
<path d="M0 0 C1.32 0 2.64 0 4 0 C4.125 2.375 4.125 2.375 4 5 C3.34 5.66 2.68 6.32 2 7 C-1.125 6.625 -1.125 6.625 -4 6 C-2.25 3 -2.25 3 0 0 Z " fill="#E9E9E9" transform="translate(27,98)"/>
<path d="M0 0 C1.98 0 3.96 0 6 0 C6 1.98 6 3.96 6 6 C4.02 6 2.04 6 0 6 C0 4.02 0 2.04 0 0 Z " fill="#141414" transform="translate(103,58)"/>
<path d="M0 0 C1.98 0 3.96 0 6 0 C6 1.98 6 3.96 6 6 C4.02 6 2.04 6 0 6 C0 4.02 0 2.04 0 0 Z " fill="#EFEFEF" transform="translate(97,58)"/>
<path d="M0 0 C1.98 0 3.96 0 6 0 C6 1.98 6 3.96 6 6 C4.02 6 2.04 6 0 6 C0 4.02 0 2.04 0 0 Z " fill="#EFEFEF" transform="translate(52,26)"/>
<path d="M0 0 C1.98 0 3.96 0 6 0 C6 1.98 6 3.96 6 6 C4.02 6 2.04 6 0 6 C0 4.02 0 2.04 0 0 Z " fill="#121212" transform="translate(7,26)"/>
<path d="M0 0 C1.98 0 3.96 0 6 0 C6 1.98 6 3.96 6 6 C4.02 6 2.04 6 0 6 C0 4.02 0 2.04 0 0 Z " fill="#F6F6F6" transform="translate(0,26)"/>
<path d="M0 0 C1.98 0 3.96 0 6 0 C6 1.98 6 3.96 6 6 C4.02 6 2.04 6 0 6 C0 4.02 0 2.04 0 0 Z " fill="#131313" transform="translate(103,0)"/>
<path d="M0 0 C-0.34879632 3.25543229 -1.02133261 4.01873107 -3.5625 6.25 C-4.366875 6.8275 -5.17125 7.405 -6 8 C-6.99 7.34 -7.98 6.68 -9 6 C-8.07213211 4.99105628 -7.13231567 3.99309093 -6.1875 3 C-5.66542969 2.443125 -5.14335938 1.88625 -4.60546875 1.3125 C-3 0 -3 0 0 0 Z " fill="#2A2A2A" transform="translate(104,19)"/>
<path d="M0 0 C0.33 0 0.66 0 1 0 C1 3.96 1 7.92 1 12 C2.98 12 4.96 12 7 12 C7 12.33 7 12.66 7 13 C5.02 13 3.04 13 1 13 C1 14.98 1 16.96 1 19 C0.67 19 0.34 19 0 19 C0 17.02 0 15.04 0 13 C-1.98 13 -3.96 13 -6 13 C-6 12.67 -6 12.34 -6 12 C-4.02 12 -2.04 12 0 12 C0 8.04 0 4.08 0 0 Z " fill="#7F7F7F" transform="translate(6,52)"/>
<path d="M0 0 C2.31 0 4.62 0 7 0 C7 0.99 7 1.98 7 3 C4.73783745 4.54779543 2.44775434 5.77612283 0 7 C0 4.69 0 2.38 0 0 Z " fill="#363636" transform="translate(90,6)"/>
<path d="M0 0 C1.65 0 3.3 0 5 0 C5 1.98 5 3.96 5 6 C3.35 6 1.7 6 0 6 C0 4.02 0 2.04 0 0 Z " fill="#F6F6F6" transform="translate(104,110)"/>
<path d="M0 0 C1.98 0 3.96 0 6 0 C6 1.65 6 3.3 6 5 C4.02 5 2.04 5 0 5 C0 3.35 0 1.7 0 0 Z " fill="#F7F7F7" transform="translate(65,91)"/>
<path d="M0 0 C1.65 0 3.3 0 5 0 C5 1.98 5 3.96 5 6 C3.35 6 1.7 6 0 6 C0 4.02 0 2.04 0 0 Z " fill="#F8F8F8" transform="translate(104,65)"/>
<path d="M0 0 C0.33 0.99 0.66 1.98 1 3 C0.01 4.32 -0.98 5.64 -2 7 C2.29 7 6.58 7 11 7 C11 7.33 11 7.66 11 8 C5.39 8 -0.22 8 -6 8 C-4.02 5.36 -2.04 2.72 0 0 Z " fill="#9F9F9F" transform="translate(111,25)"/>
<path d="M0 0 C1.98 0 3.96 0 6 0 C6 1.65 6 3.3 6 5 C4.02 5 2.04 5 0 5 C0 3.35 0 1.7 0 0 Z " fill="#F9F9F9" transform="translate(65,20)"/>
<path d="M0 0 C1.98 0 3.96 0 6 0 C6 1.65 6 3.3 6 5 C7.98 5 9.96 5 12 5 C12 5.33 12 5.66 12 6 C9.375 6.8125 9.375 6.8125 6 7 C3.52333222 5.60547986 2.02440584 4.07260598 0 2 C0 1.34 0 0.68 0 0 Z " fill="#393939" transform="translate(77,26)"/>
<path d="M0 0 C0.66 0.33 1.32 0.66 2 1 C0.68 3.31 -0.64 5.62 -2 8 C-2.99 8 -3.98 8 -5 8 C-5.33 8.99 -5.66 9.98 -6 11 C-6.71484375 9.234375 -6.71484375 9.234375 -7 7 C-5.56640625 5.078125 -5.56640625 5.078125 -3.5625 3.25 C-2.90378906 2.63640625 -2.24507813 2.0228125 -1.56640625 1.390625 C-1.04949219 0.93171875 -0.53257813 0.4728125 0 0 Z " fill="#1E1E1E" transform="translate(68,41)"/>
<path d="M0 0 C1.65 0 3.3 0 5 0 C5 1.65 5 3.3 5 5 C3.35 5 1.7 5 0 5 C0 3.35 0 1.7 0 0 Z " fill="#000000" transform="translate(104,117)"/>
<path d="M0 0 C1.65 0 3.3 0 5 0 C5 1.65 5 3.3 5 5 C3.35 5 1.7 5 0 5 C0 3.35 0 1.7 0 0 Z " fill="#000000" transform="translate(1,20)"/>
<path d="M0 0 C1.65 0 3.3 0 5 0 C5 1.65 5 3.3 5 5 C3.35 5 1.7 5 0 5 C0 3.35 0 1.7 0 0 Z " fill="#000000" transform="translate(20,14)"/>
<path d="M0 0 C1.98 0.66 3.96 1.32 6 2 C5.34 3.65 4.68 5.3 4 7 C3.01 6.67 2.02 6.34 1 6 C0.67 4.02 0.34 2.04 0 0 Z " fill="#CFCFCF" transform="translate(36,81)"/>
<path d="M0 0 C1.32 0 2.64 0 4 0 C4 0.99 4 1.98 4 3 C1 5 1 5 -2 5 C-1.125 1.125 -1.125 1.125 0 0 Z " fill="#F5F5F5" transform="translate(21,93)"/>
<path d="M0 0 C0.99 0.33 1.98 0.66 3 1 C3 1.66 3 2.32 3 3 C2.01 3 1.02 3 0 3 C0 3.66 0 4.32 0 5 C-1.65 5.33 -3.3 5.66 -5 6 C-5.33 5.34 -5.66 4.68 -6 4 C-5.195625 3.525625 -4.39125 3.05125 -3.5625 2.5625 C-1.15246512 1.23099846 -1.15246512 1.23099846 0 0 Z " fill="#383838" transform="translate(25,80)"/>
<path d="M0 0 C1.32 0 2.64 0 4 0 C4.33 0.99 4.66 1.98 5 3 C4.01 3 3.02 3 2 3 C2 3.66 2 4.32 2 5 C1.01 5 0.02 5 -1 5 C-0.67 3.35 -0.34 1.7 0 0 Z " fill="#010101" transform="translate(33,77)"/>
<path d="M0 0 C0.33 0.99 0.66 1.98 1 3 C-0.65 4.32 -2.3 5.64 -4 7 C-4.33 5.35 -4.66 3.7 -5 2 C-3.35 1.34 -1.7 0.68 0 0 Z " fill="#C2C2C2" transform="translate(102,35)"/>
<path d="M0 0 C1.32 0 2.64 0 4 0 C3.25 4.75 3.25 4.75 1 7 C1 6.34 1 5.68 1 5 C0.34 4.67 -0.32 4.34 -1 4 C-0.67 2.68 -0.34 1.36 0 0 Z " fill="#2F2F2F" transform="translate(31,99)"/>
<path d="M0 0 C1.20628008 2.33214148 2.1654738 4.49642139 3 7 C1.35 7 -0.3 7 -2 7 C-2.33 5.68 -2.66 4.36 -3 3 C-2.01 3 -1.02 3 0 3 C0 2.01 0 1.02 0 0 Z " fill="#B5B5B5" transform="translate(70,34)"/>
<path d="M0 0 C1.98 0 3.96 0 6 0 C6 0.99 6 1.98 6 3 C3.69 3 1.38 3 -1 3 C-0.67 2.01 -0.34 1.02 0 0 Z " fill="#0F0F0F" transform="translate(20,89)"/>
<path d="M0 0 C0.66 0.33 1.32 0.66 2 1 C-0.475 4.465 -0.475 4.465 -3 8 C-3.66 7.67 -4.32 7.34 -5 7 C-3.70700306 4.11562221 -2.34058637 2.12780579 0 0 Z " fill="#C5C5C5" transform="translate(45,85)"/>
<path d="M0 0 C0.33 1.32 0.66 2.64 1 4 C0.38125 4.2475 -0.2375 4.495 -0.875 4.75 C-3.35068687 6.20628639 -3.95125002 7.37812506 -5 10 C-5.3125 7.8125 -5.3125 7.8125 -5 5 C-2.5 2.1875 -2.5 2.1875 0 0 Z " fill="#373737" transform="translate(19,89)"/>
<path d="M0 0 C1.98 0.495 1.98 0.495 4 1 C3.34 2.32 2.68 3.64 2 5 C1.01 4.34 0.02 3.68 -1 3 C-0.67 2.01 -0.34 1.02 0 0 Z " fill="#262626" transform="translate(38,93)"/>
</svg>
